<svg width="1440" height="64" viewBox="0 0 1440 64" fill="none" xmlns="http://www.w3.org/2000/svg">
<rect width="1440" height="64" fill="#373F41"/>
<path d="M626.644 37.108C626.036 37.108 625.464 37 624.928 36.784C624.4 36.56 623.94 36.252 623.548 35.86C623.156 35.468 622.848 35.008 622.624 34.48C622.408 33.944 622.3 33.372 622.3 32.764C622.3 32.148 622.408 31.576 622.624 31.048C622.848 30.52 623.156 30.064 623.548 29.68C623.94 29.288 624.4 28.984 624.928 28.768C625.456 28.544 626.028 28.432 626.644 28.432C627.26 28.432 627.832 28.544 628.36 28.768C628.888 28.984 629.344 29.288 629.728 29.68C630.12 30.064 630.424 30.52 630.64 31.048C630.864 31.576 630.976 32.148 630.976 32.764C630.976 33.372 630.864 33.944 630.64 34.48C630.424 35.008 630.12 35.468 629.728 35.86C629.344 36.252 628.888 36.56 628.36 36.784C627.832 37 627.26 37.108 626.644 37.108ZM626.824 35.356C626.04 35.356 625.42 35.12 624.964 34.648C624.508 34.168 624.28 33.532 624.28 32.74C624.28 31.948 624.508 31.324 624.964 30.868C625.42 30.412 626.04 30.184 626.824 30.184C627.144 30.184 627.46 30.24 627.772 30.352C628.092 30.456 628.352 30.604 628.552 30.796L628.216 31.54C628.024 31.364 627.812 31.236 627.58 31.156C627.348 31.068 627.12 31.024 626.896 31.024C626.408 31.024 626.024 31.176 625.744 31.48C625.472 31.784 625.336 32.208 625.336 32.752C625.336 33.288 625.472 33.716 625.744 34.036C626.024 34.348 626.408 34.504 626.896 34.504C627.12 34.504 627.348 34.464 627.58 34.384C627.812 34.296 628.024 34.164 628.216 33.988L628.552 34.744C628.352 34.928 628.092 35.076 627.772 35.188C627.452 35.3 627.136 35.356 626.824 35.356ZM626.644 36.532C627.18 36.532 627.672 36.44 628.12 36.256C628.576 36.064 628.972 35.796 629.308 35.452C629.644 35.108 629.904 34.708 630.088 34.252C630.28 33.796 630.376 33.3 630.376 32.764C630.376 32.228 630.28 31.732 630.088 31.276C629.904 30.82 629.644 30.424 629.308 30.088C628.972 29.744 628.576 29.48 628.12 29.296C627.672 29.104 627.18 29.008 626.644 29.008C626.108 29.008 625.612 29.104 625.156 29.296C624.7 29.48 624.304 29.744 623.968 30.088C623.632 30.424 623.368 30.82 623.176 31.276C622.992 31.732 622.9 32.228 622.9 32.764C622.9 33.3 622.992 33.796 623.176 34.252C623.368 34.708 623.632 35.108 623.968 35.452C624.304 35.796 624.7 36.064 625.156 36.256C625.612 36.44 626.108 36.532 626.644 36.532ZM636.14 39.244C636.012 39.244 635.86 39.236 635.684 39.22C635.508 39.204 635.328 39.176 635.144 39.136V38.128C635.296 38.16 635.44 38.184 635.576 38.2C635.712 38.224 635.832 38.236 635.936 38.236C636.304 38.236 636.576 38.124 636.752 37.9C636.928 37.676 637.016 37.32 637.016 36.832V28.54H638.264V36.844C638.264 37.372 638.188 37.812 638.036 38.164C637.884 38.524 637.652 38.792 637.34 38.968C637.036 39.152 636.636 39.244 636.14 39.244ZM639.637 39.652C639.509 39.652 639.361 39.64 639.193 39.616C639.017 39.592 638.865 39.552 638.737 39.496V38.512C638.841 38.544 638.957 38.572 639.085 38.596C639.205 38.628 639.321 38.644 639.433 38.644C639.745 38.644 639.981 38.544 640.141 38.344C640.309 38.152 640.393 37.832 640.393 37.384V30.952H641.605V37.468C641.605 38.188 641.445 38.732 641.125 39.1C640.805 39.468 640.309 39.652 639.637 39.652ZM640.285 29.692V28.432H641.701V29.692H640.285ZM645.85 37.108C645.314 37.108 644.846 36.984 644.446 36.736C644.046 36.488 643.734 36.128 643.51 35.656C643.294 35.184 643.186 34.624 643.186 33.976C643.186 33.32 643.294 32.76 643.51 32.296C643.734 31.832 644.046 31.476 644.446 31.228C644.846 30.972 645.314 30.844 645.85 30.844C646.378 30.844 646.838 30.976 647.23 31.24C647.622 31.504 647.882 31.864 648.01 32.32H647.878L647.998 30.952H649.174C649.15 31.2 649.126 31.448 649.102 31.696C649.086 31.936 649.078 32.172 649.078 32.404V37H647.866V35.656H647.998C647.87 36.104 647.606 36.46 647.206 36.724C646.814 36.98 646.362 37.108 645.85 37.108ZM646.15 36.16C646.67 36.16 647.086 35.976 647.398 35.608C647.718 35.24 647.878 34.696 647.878 33.976C647.878 33.256 647.718 32.716 647.398 32.356C647.086 31.988 646.67 31.804 646.15 31.804C645.622 31.804 645.198 31.988 644.878 32.356C644.566 32.716 644.41 33.256 644.41 33.976C644.41 34.696 644.566 35.24 644.878 35.608C645.19 35.976 645.614 36.16 646.15 36.16ZM653.698 37.108C653.09 37.108 652.558 36.984 652.102 36.736C651.654 36.48 651.306 36.116 651.058 35.644C650.818 35.164 650.698 34.596 650.698 33.94C650.698 33.292 650.822 32.736 651.07 32.272C651.318 31.808 651.666 31.456 652.114 31.216C652.562 30.968 653.09 30.844 653.698 30.844C654.09 30.844 654.47 30.912 654.838 31.048C655.206 31.176 655.51 31.36 655.75 31.6L655.354 32.452C655.13 32.236 654.878 32.076 654.598 31.972C654.318 31.86 654.046 31.804 653.782 31.804C653.206 31.804 652.754 31.988 652.426 32.356C652.098 32.724 651.934 33.256 651.934 33.952C651.934 34.656 652.098 35.196 652.426 35.572C652.754 35.948 653.206 36.136 653.782 36.136C654.038 36.136 654.306 36.088 654.586 35.992C654.866 35.888 655.122 35.724 655.354 35.5L655.75 36.352C655.502 36.592 655.19 36.78 654.814 36.916C654.446 37.044 654.074 37.108 653.698 37.108ZM657.234 37V28.168H658.446V33.592H658.47L661.11 30.952H662.61L659.418 34.132L659.43 33.592L662.874 37H661.338L658.47 34.228H658.446V37H657.234ZM664.181 37V31.888H663.005V30.952H664.517L664.181 31.264V30.304C664.181 29.592 664.361 29.052 664.721 28.684C665.081 28.308 665.609 28.12 666.305 28.12C666.473 28.12 666.649 28.132 666.833 28.156C667.017 28.18 667.169 28.22 667.289 28.276V29.26C667.193 29.22 667.073 29.188 666.929 29.164C666.793 29.132 666.653 29.116 666.509 29.116C666.277 29.116 666.077 29.164 665.909 29.26C665.741 29.348 665.609 29.484 665.513 29.668C665.425 29.852 665.381 30.088 665.381 30.376V31.192L665.201 30.952H667.025V31.888H665.393V37H664.181ZM668.216 37V32.452C668.216 32.204 668.208 31.956 668.192 31.708C668.184 31.452 668.168 31.2 668.144 30.952H669.32L669.452 32.512H669.26C669.34 32.136 669.476 31.824 669.668 31.576C669.86 31.328 670.092 31.144 670.364 31.024C670.644 30.904 670.936 30.844 671.24 30.844C671.368 30.844 671.476 30.852 671.564 30.868C671.652 30.876 671.74 30.892 671.828 30.916L671.816 31.996C671.68 31.94 671.56 31.908 671.456 31.9C671.36 31.884 671.24 31.876 671.096 31.876C670.744 31.876 670.444 31.956 670.196 32.116C669.948 32.268 669.76 32.476 669.632 32.74C669.504 33.004 669.44 33.288 669.44 33.592V37H668.216ZM672.963 37V30.952H674.175V37H672.963ZM672.867 29.692V28.432H674.271V29.692H672.867ZM678.948 37.108C677.972 37.108 677.204 36.832 676.644 36.28C676.084 35.728 675.804 34.964 675.804 33.988C675.804 33.356 675.924 32.804 676.164 32.332C676.412 31.86 676.752 31.496 677.184 31.24C677.624 30.976 678.132 30.844 678.708 30.844C679.276 30.844 679.752 30.964 680.136 31.204C680.52 31.444 680.812 31.784 681.012 32.224C681.212 32.656 681.312 33.168 681.312 33.76V34.144H676.752V33.448H680.484L680.28 33.604C680.28 33.004 680.144 32.54 679.872 32.212C679.608 31.876 679.224 31.708 678.72 31.708C678.16 31.708 677.728 31.904 677.424 32.296C677.12 32.68 676.968 33.212 676.968 33.892V34.012C676.968 34.724 677.14 35.26 677.484 35.62C677.836 35.98 678.332 36.16 678.972 36.16C679.324 36.16 679.652 36.112 679.956 36.016C680.268 35.912 680.564 35.744 680.844 35.512L681.24 36.34C680.96 36.588 680.62 36.78 680.22 36.916C679.82 37.044 679.396 37.108 678.948 37.108ZM682.902 37V32.404C682.902 32.172 682.89 31.936 682.866 31.696C682.85 31.448 682.83 31.2 682.806 30.952H683.982L684.09 32.224H683.946C684.13 31.776 684.414 31.436 684.798 31.204C685.182 30.964 685.626 30.844 686.13 30.844C686.842 30.844 687.378 31.04 687.738 31.432C688.106 31.824 688.29 32.432 688.29 33.256V37H687.078V33.328C687.078 32.792 686.97 32.408 686.754 32.176C686.546 31.936 686.226 31.816 685.794 31.816C685.282 31.816 684.874 31.976 684.57 32.296C684.266 32.608 684.114 33.032 684.114 33.568V37H682.902ZM692.532 37.108C692.004 37.108 691.536 36.984 691.128 36.736C690.728 36.488 690.416 36.128 690.192 35.656C689.976 35.184 689.868 34.624 689.868 33.976C689.868 33.32 689.976 32.76 690.192 32.296C690.416 31.832 690.728 31.476 691.128 31.228C691.536 30.972 692.004 30.844 692.532 30.844C693.052 30.844 693.508 30.976 693.9 31.24C694.3 31.496 694.564 31.848 694.692 32.296H694.548V28.168H695.76V37H694.56V35.632H694.704C694.568 36.088 694.304 36.448 693.912 36.712C693.52 36.976 693.06 37.108 692.532 37.108ZM692.832 36.16C693.352 36.16 693.772 35.976 694.092 35.608C694.412 35.24 694.572 34.696 694.572 33.976C694.572 33.256 694.412 32.716 694.092 32.356C693.772 31.988 693.352 31.804 692.832 31.804C692.304 31.804 691.88 31.988 691.56 32.356C691.248 32.716 691.092 33.256 691.092 33.976C691.092 34.696 691.248 35.24 691.56 35.608C691.88 35.976 692.304 36.16 692.832 36.16ZM699.804 37.108C699.3 37.108 698.836 37.044 698.412 36.916C697.988 36.788 697.636 36.608 697.356 36.376L697.728 35.548C698.024 35.772 698.352 35.94 698.712 36.052C699.072 36.164 699.44 36.22 699.816 36.22C700.256 36.22 700.588 36.144 700.812 35.992C701.036 35.832 701.148 35.616 701.148 35.344C701.148 35.136 701.076 34.968 700.932 34.84C700.796 34.712 700.568 34.616 700.248 34.552L699.096 34.324C698.584 34.212 698.196 34.02 697.932 33.748C697.668 33.476 697.536 33.128 697.536 32.704C697.536 32.344 697.632 32.024 697.824 31.744C698.024 31.464 698.304 31.244 698.664 31.084C699.032 30.924 699.46 30.844 699.948 30.844C700.396 30.844 700.812 30.908 701.196 31.036C701.58 31.164 701.9 31.348 702.156 31.588L701.772 32.392C701.524 32.184 701.244 32.024 700.932 31.912C700.62 31.792 700.304 31.732 699.984 31.732C699.536 31.732 699.204 31.816 698.988 31.984C698.772 32.152 698.664 32.372 698.664 32.644C698.664 32.852 698.728 33.024 698.856 33.16C698.992 33.288 699.204 33.388 699.492 33.46L700.644 33.688C701.188 33.8 701.596 33.984 701.868 34.24C702.14 34.496 702.276 34.84 702.276 35.272C702.276 35.648 702.172 35.976 701.964 36.256C701.756 36.536 701.468 36.748 701.1 36.892C700.732 37.036 700.3 37.108 699.804 37.108ZM703.666 37V35.572H705.094V37H703.666ZM709.525 37L713.293 28.54H714.361L718.189 37H716.905L715.861 34.6L716.389 34.936H711.265L711.829 34.6L710.785 37H709.525ZM713.809 29.908L711.985 34.216L711.697 33.94H715.957L715.717 34.216L713.857 29.908H713.809ZM719.399 37V28.168H720.611V37H719.399ZM722.588 37V28.168H723.8V37H722.588ZM729.151 37V32.452C729.151 32.204 729.143 31.956 729.127 31.708C729.119 31.452 729.103 31.2 729.079 30.952H730.255L730.387 32.512H730.195C730.275 32.136 730.411 31.824 730.603 31.576C730.795 31.328 731.027 31.144 731.299 31.024C731.579 30.904 731.871 30.844 732.175 30.844C732.303 30.844 732.411 30.852 732.499 30.868C732.587 30.876 732.675 30.892 732.763 30.916L732.751 31.996C732.615 31.94 732.495 31.908 732.391 31.9C732.295 31.884 732.175 31.876 732.031 31.876C731.679 31.876 731.379 31.956 731.131 32.116C730.883 32.268 730.695 32.476 730.567 32.74C730.439 33.004 730.375 33.288 730.375 33.592V37H729.151ZM733.899 37V30.952H735.111V37H733.899ZM733.803 29.692V28.432H735.207V29.692H733.803ZM739.811 39.688C739.267 39.688 738.771 39.624 738.323 39.496C737.883 39.368 737.487 39.176 737.135 38.92L737.435 38.032C737.683 38.2 737.927 38.332 738.167 38.428C738.407 38.532 738.659 38.608 738.923 38.656C739.187 38.704 739.459 38.728 739.739 38.728C740.315 38.728 740.747 38.58 741.035 38.284C741.331 37.996 741.479 37.576 741.479 37.024V35.404H741.599C741.471 35.852 741.207 36.208 740.807 36.472C740.415 36.728 739.959 36.856 739.439 36.856C738.887 36.856 738.407 36.736 737.999 36.496C737.599 36.248 737.287 35.9 737.063 35.452C736.847 34.996 736.739 34.46 736.739 33.844C736.739 33.228 736.847 32.696 737.063 32.248C737.287 31.8 737.599 31.456 737.999 31.216C738.407 30.968 738.887 30.844 739.439 30.844C739.967 30.844 740.423 30.976 740.807 31.24C741.199 31.496 741.459 31.848 741.587 32.296L741.479 32.2L741.587 30.952H742.763C742.731 31.2 742.707 31.448 742.691 31.696C742.675 31.936 742.667 32.172 742.667 32.404V36.88C742.667 37.792 742.423 38.488 741.935 38.968C741.455 39.448 740.747 39.688 739.811 39.688ZM739.727 35.908C740.255 35.908 740.675 35.728 740.987 35.368C741.307 35.008 741.467 34.5 741.467 33.844C741.467 33.188 741.307 32.684 740.987 32.332C740.675 31.98 740.255 31.804 739.727 31.804C739.183 31.804 738.751 31.98 738.431 32.332C738.119 32.684 737.963 33.188 737.963 33.844C737.963 34.5 738.119 35.008 738.431 35.368C738.751 35.728 739.183 35.908 739.727 35.908ZM744.634 37V28.168H745.846V32.236H745.678C745.854 31.78 746.138 31.436 746.53 31.204C746.922 30.964 747.374 30.844 747.886 30.844C748.606 30.844 749.142 31.044 749.494 31.444C749.846 31.836 750.022 32.432 750.022 33.232V37H748.81V33.304C748.81 32.784 748.706 32.408 748.498 32.176C748.298 31.936 747.978 31.816 747.538 31.816C747.026 31.816 746.614 31.976 746.302 32.296C745.998 32.608 745.846 33.024 745.846 33.544V37H744.634ZM754.3 37.108C753.644 37.108 753.148 36.932 752.812 36.58C752.476 36.22 752.308 35.684 752.308 34.972V31.888H751.132V30.952H752.308V29.356L753.52 29.032V30.952H755.2V31.888H753.52V34.864C753.52 35.312 753.6 35.632 753.76 35.824C753.92 36.016 754.152 36.112 754.456 36.112C754.608 36.112 754.74 36.1 754.852 36.076C754.972 36.044 755.08 36.008 755.176 35.968V36.952C755.056 37 754.916 37.036 754.756 37.06C754.596 37.092 754.444 37.108 754.3 37.108ZM758.583 37.108C758.079 37.108 757.615 37.044 757.191 36.916C756.767 36.788 756.415 36.608 756.135 36.376L756.507 35.548C756.803 35.772 757.131 35.94 757.491 36.052C757.851 36.164 758.219 36.22 758.595 36.22C759.035 36.22 759.367 36.144 759.591 35.992C759.815 35.832 759.927 35.616 759.927 35.344C759.927 35.136 759.855 34.968 759.711 34.84C759.575 34.712 759.347 34.616 759.027 34.552L757.875 34.324C757.363 34.212 756.975 34.02 756.711 33.748C756.447 33.476 756.315 33.128 756.315 32.704C756.315 32.344 756.411 32.024 756.603 31.744C756.803 31.464 757.083 31.244 757.443 31.084C757.811 30.924 758.239 30.844 758.727 30.844C759.175 30.844 759.591 30.908 759.975 31.036C760.359 31.164 760.679 31.348 760.935 31.588L760.551 32.392C760.303 32.184 760.023 32.024 759.711 31.912C759.399 31.792 759.083 31.732 758.763 31.732C758.315 31.732 757.983 31.816 757.767 31.984C757.551 32.152 757.443 32.372 757.443 32.644C757.443 32.852 757.507 33.024 757.635 33.16C757.771 33.288 757.983 33.388 758.271 33.46L759.423 33.688C759.967 33.8 760.375 33.984 760.647 34.24C760.919 34.496 761.055 34.84 761.055 35.272C761.055 35.648 760.951 35.976 760.743 36.256C760.535 36.536 760.247 36.748 759.879 36.892C759.511 37.036 759.079 37.108 758.583 37.108ZM766.059 37V32.452C766.059 32.204 766.051 31.956 766.035 31.708C766.027 31.452 766.011 31.2 765.987 30.952H767.163L767.295 32.512H767.103C767.183 32.136 767.319 31.824 767.511 31.576C767.703 31.328 767.935 31.144 768.207 31.024C768.487 30.904 768.779 30.844 769.083 30.844C769.211 30.844 769.319 30.852 769.407 30.868C769.495 30.876 769.583 30.892 769.671 30.916L769.659 31.996C769.523 31.94 769.403 31.908 769.299 31.9C769.203 31.884 769.083 31.876 768.939 31.876C768.587 31.876 768.287 31.956 768.039 32.116C767.791 32.268 767.603 32.476 767.475 32.74C767.347 33.004 767.283 33.288 767.283 33.592V37H766.059ZM773.52 37.108C772.544 37.108 771.776 36.832 771.216 36.28C770.656 35.728 770.376 34.964 770.376 33.988C770.376 33.356 770.496 32.804 770.736 32.332C770.984 31.86 771.324 31.496 771.756 31.24C772.196 30.976 772.704 30.844 773.28 30.844C773.848 30.844 774.324 30.964 774.708 31.204C775.092 31.444 775.384 31.784 775.584 32.224C775.784 32.656 775.884 33.168 775.884 33.76V34.144H771.324V33.448H775.056L774.852 33.604C774.852 33.004 774.716 32.54 774.444 32.212C774.18 31.876 773.796 31.708 773.292 31.708C772.732 31.708 772.3 31.904 771.996 32.296C771.692 32.68 771.54 33.212 771.54 33.892V34.012C771.54 34.724 771.712 35.26 772.056 35.62C772.408 35.98 772.904 36.16 773.544 36.16C773.896 36.16 774.224 36.112 774.528 36.016C774.84 35.912 775.136 35.744 775.416 35.512L775.812 36.34C775.532 36.588 775.192 36.78 774.792 36.916C774.392 37.044 773.968 37.108 773.52 37.108ZM779.551 37.108C779.047 37.108 778.583 37.044 778.159 36.916C777.735 36.788 777.383 36.608 777.103 36.376L777.475 35.548C777.771 35.772 778.099 35.94 778.459 36.052C778.819 36.164 779.187 36.22 779.563 36.22C780.003 36.22 780.335 36.144 780.559 35.992C780.783 35.832 780.895 35.616 780.895 35.344C780.895 35.136 780.823 34.968 780.679 34.84C780.543 34.712 780.315 34.616 779.995 34.552L778.843 34.324C778.331 34.212 777.943 34.02 777.679 33.748C777.415 33.476 777.283 33.128 777.283 32.704C777.283 32.344 777.379 32.024 777.571 31.744C777.771 31.464 778.051 31.244 778.411 31.084C778.779 30.924 779.207 30.844 779.695 30.844C780.143 30.844 780.559 30.908 780.943 31.036C781.327 31.164 781.647 31.348 781.903 31.588L781.519 32.392C781.271 32.184 780.991 32.024 780.679 31.912C780.367 31.792 780.051 31.732 779.731 31.732C779.283 31.732 778.951 31.816 778.735 31.984C778.519 32.152 778.411 32.372 778.411 32.644C778.411 32.852 778.475 33.024 778.603 33.16C778.739 33.288 778.951 33.388 779.239 33.46L780.391 33.688C780.935 33.8 781.343 33.984 781.615 34.24C781.887 34.496 782.023 34.84 782.023 35.272C782.023 35.648 781.919 35.976 781.711 36.256C781.503 36.536 781.215 36.748 780.847 36.892C780.479 37.036 780.047 37.108 779.551 37.108ZM786.448 37.108C785.472 37.108 784.704 36.832 784.144 36.28C783.584 35.728 783.304 34.964 783.304 33.988C783.304 33.356 783.424 32.804 783.664 32.332C783.912 31.86 784.252 31.496 784.684 31.24C785.124 30.976 785.632 30.844 786.208 30.844C786.776 30.844 787.252 30.964 787.636 31.204C788.02 31.444 788.312 31.784 788.512 32.224C788.712 32.656 788.812 33.168 788.812 33.76V34.144H784.252V33.448H787.984L787.78 33.604C787.78 33.004 787.644 32.54 787.372 32.212C787.108 31.876 786.724 31.708 786.22 31.708C785.66 31.708 785.228 31.904 784.924 32.296C784.62 32.68 784.468 33.212 784.468 33.892V34.012C784.468 34.724 784.64 35.26 784.984 35.62C785.336 35.98 785.832 36.16 786.472 36.16C786.824 36.16 787.152 36.112 787.456 36.016C787.768 35.912 788.064 35.744 788.344 35.512L788.74 36.34C788.46 36.588 788.12 36.78 787.72 36.916C787.32 37.044 786.896 37.108 786.448 37.108ZM790.378 37V32.452C790.378 32.204 790.37 31.956 790.354 31.708C790.346 31.452 790.33 31.2 790.306 30.952H791.482L791.614 32.512H791.422C791.502 32.136 791.638 31.824 791.83 31.576C792.022 31.328 792.254 31.144 792.526 31.024C792.806 30.904 793.098 30.844 793.402 30.844C793.53 30.844 793.638 30.852 793.726 30.868C793.814 30.876 793.902 30.892 793.99 30.916L793.978 31.996C793.842 31.94 793.722 31.908 793.618 31.9C793.522 31.884 793.402 31.876 793.258 31.876C792.906 31.876 792.606 31.956 792.358 32.116C792.11 32.268 791.922 32.476 791.794 32.74C791.666 33.004 791.602 33.288 791.602 33.592V37H790.378ZM797.265 37L794.673 30.952H795.969L798.009 36.004H797.661L799.737 30.952H800.973L798.369 37H797.265ZM804.825 37.108C803.849 37.108 803.081 36.832 802.521 36.28C801.961 35.728 801.681 34.964 801.681 33.988C801.681 33.356 801.801 32.804 802.041 32.332C802.289 31.86 802.629 31.496 803.061 31.24C803.501 30.976 804.009 30.844 804.585 30.844C805.153 30.844 805.629 30.964 806.013 31.204C806.397 31.444 806.689 31.784 806.889 32.224C807.089 32.656 807.189 33.168 807.189 33.76V34.144H802.629V33.448H806.361L806.157 33.604C806.157 33.004 806.021 32.54 805.749 32.212C805.485 31.876 805.101 31.708 804.597 31.708C804.037 31.708 803.605 31.904 803.301 32.296C802.997 32.68 802.845 33.212 802.845 33.892V34.012C802.845 34.724 803.017 35.26 803.361 35.62C803.713 35.98 804.209 36.16 804.849 36.16C805.201 36.16 805.529 36.112 805.833 36.016C806.145 35.912 806.441 35.744 806.721 35.512L807.117 36.34C806.837 36.588 806.497 36.78 806.097 36.916C805.697 37.044 805.273 37.108 804.825 37.108ZM811.096 37.108C810.568 37.108 810.1 36.984 809.692 36.736C809.292 36.488 808.98 36.128 808.756 35.656C808.54 35.184 808.432 34.624 808.432 33.976C808.432 33.32 808.54 32.76 808.756 32.296C808.98 31.832 809.292 31.476 809.692 31.228C810.1 30.972 810.568 30.844 811.096 30.844C811.616 30.844 812.072 30.976 812.464 31.24C812.864 31.496 813.128 31.848 813.256 32.296H813.112V28.168H814.324V37H813.124V35.632H813.268C813.132 36.088 812.868 36.448 812.476 36.712C812.084 36.976 811.624 37.108 811.096 37.108ZM811.396 36.16C811.916 36.16 812.336 35.976 812.656 35.608C812.976 35.24 813.136 34.696 813.136 33.976C813.136 33.256 812.976 32.716 812.656 32.356C812.336 31.988 811.916 31.804 811.396 31.804C810.868 31.804 810.444 31.988 810.124 32.356C809.812 32.716 809.656 33.256 809.656 33.976C809.656 34.696 809.812 35.24 810.124 35.608C810.444 35.976 810.868 36.16 811.396 36.16ZM816.112 37V35.572H817.54V37H816.112Z" fill="#C3CBCD"/>
</svg>
